<svg width="307" height="125" viewBox="0 0 307 125" fill="none" xmlns="http://www.w3.org/2000/svg">
<path fill-rule="evenodd" clip-rule="evenodd" d="M41.2774 0.382449C40.4014 0.956449 39.7904 1.31545 38.3304 2.11545C36.1694 3.29845 36.2864 3.12345 36.2244 5.27945C36.1944 6.31345 36.0884 7.25445 35.9874 7.37545C35.8624 7.52645 35.8104 9.20645 35.8244 12.6864C35.8494 18.8944 35.7624 19.1634 34.2424 17.6064C33.5034 16.8494 33.3234 16.8844 31.3564 18.1634C30.7464 18.5594 29.7234 19.1864 29.0814 19.5564C27.5224 20.4564 22.5184 23.4794 21.1644 24.3404C20.5684 24.7194 19.9314 25.1174 19.7484 25.2244C19.1214 25.5914 14.4164 28.4914 13.4694 29.0944C12.9494 29.4254 12.0964 29.9584 11.5744 30.2794C11.0524 30.5994 10.4284 30.9924 10.1874 31.1524C9.94538 31.3114 9.63538 31.4914 9.49838 31.5524C9.36038 31.6134 9.11038 31.7834 8.94138 31.9294C8.77238 32.0754 8.31338 32.3834 7.92038 32.6124C6.84038 33.2424 4.58938 34.8044 4.52638 34.9684C4.49538 35.0474 4.32638 35.1124 4.15138 35.1124C3.97538 35.1124 3.83138 35.1824 3.83138 35.2674C3.83138 35.3534 3.67438 35.4735 3.48138 35.5345C3.23938 35.6115 3.18438 35.6985 3.30538 35.8195C3.42538 35.9395 3.63938 35.8574 4.00138 35.5524C4.51738 35.1174 4.99838 34.9755 4.99838 35.2575C4.99838 35.3375 5.36638 35.4514 5.81538 35.5114C6.75238 35.6354 6.98638 35.9585 6.49438 36.4495C6.31338 36.6305 6.16538 36.8474 6.16538 36.9314C6.16538 37.0154 6.08138 37.1125 5.97938 37.1465C5.87738 37.1805 5.82138 37.3335 5.85438 37.4855C5.90338 37.7095 6.03938 37.6515 6.56738 37.1795C6.93138 36.8545 7.35838 36.6185 7.53238 36.6465C8.00638 36.7215 7.93038 36.9924 7.35438 37.2754C7.07138 37.4144 6.83738 37.6224 6.83538 37.7374C6.83038 38.0084 7.00438 37.9934 7.40538 37.6904C7.91738 37.3034 8.28738 37.3674 7.91538 37.7794C7.74938 37.9624 7.51838 38.1124 7.40338 38.1124C7.28738 38.1124 7.16638 38.1914 7.13438 38.2884C7.10238 38.3844 6.94838 38.4825 6.79138 38.5055C6.63538 38.5285 6.29538 38.7605 6.03438 39.0205C5.34438 39.7105 4.79538 39.7094 4.10338 39.0174C3.78838 38.7024 3.41338 38.4454 3.26838 38.4454C3.12338 38.4454 2.51438 38.1454 1.91538 37.7794C0.639379 36.9984 0.380379 36.9625 0.161379 37.5405C-0.0426205 38.0745 -0.0586207 86.5984 0.144379 86.9184C0.256379 87.0954 0.486378 87.0395 1.26738 86.6475C1.80638 86.3755 2.84838 85.9075 3.58138 85.6075C4.31538 85.3075 5.00838 84.9895 5.12338 84.9005C5.28838 84.7725 5.33138 80.1994 5.33138 63.0324C5.33138 40.7784 5.35138 39.8094 5.81438 39.6684C5.96138 39.6244 6.21238 39.5184 6.37138 39.4334C6.53038 39.3484 6.76738 39.2794 6.89938 39.2794C7.03038 39.2794 7.16238 39.2224 7.19238 39.1544C7.25238 39.0194 8.60238 38.1124 8.74338 38.1124C8.79038 38.1124 9.34638 37.7805 9.98038 37.3745C10.6134 36.9685 11.4584 36.4794 11.8564 36.2884C12.2554 36.0964 13.4064 35.4314 14.4154 34.8084C15.4234 34.1854 16.5854 33.4954 16.9984 33.2754C17.4114 33.0544 17.8984 32.7494 18.0814 32.5984C18.2654 32.4464 18.6154 32.2184 18.8594 32.0924C19.9804 31.5124 21.9624 30.3624 22.4154 30.0284C22.6904 29.8254 23.3274 29.4464 23.8314 29.1854C24.3354 28.9254 25.3564 28.3154 26.1004 27.8294C26.8434 27.3434 27.5684 26.9454 27.7114 26.9454C27.8544 26.9454 27.9954 26.8824 28.0264 26.8044C28.0564 26.7264 29.3194 25.9204 30.8314 25.0134C32.3444 24.1064 33.7074 23.2894 33.8614 23.1964C35.4904 22.2184 35.7644 22.0964 35.9964 22.2414C36.2664 22.4104 36.3654 101.647 36.0974 103.614C35.9544 104.666 36.2824 105.277 37.2344 105.73C37.5174 105.864 38.1234 106.191 38.5814 106.456C39.0404 106.721 39.6774 107.068 39.9984 107.226C40.3194 107.385 40.7314 107.644 40.9154 107.801C41.0984 107.959 41.4734 108.112 41.7484 108.142L42.2484 108.195L42.3674 54.3764C42.4494 17.6694 42.5414 0.502448 42.6594 0.384448C42.7784 0.266448 42.8294 0.287447 42.8244 0.454447C42.8204 0.587447 42.8554 4.89545 42.9014 10.0294C42.9484 15.1624 42.9884 39.6345 42.9924 64.4115C42.9984 106.14 43.0184 109.456 43.2724 109.411C43.4234 109.384 43.5804 109.456 43.6204 109.57C43.6614 109.69 43.5564 109.779 43.3734 109.779C43.1064 109.779 43.0544 109.901 43.0544 110.529C43.0544 111.397 43.3824 111.525 44.1194 110.945C44.3524 110.762 44.6344 110.612 44.7454 110.612C44.8574 110.612 45.2594 110.387 45.6384 110.112C46.0184 109.837 46.4094 109.612 46.5084 109.612C46.6064 109.612 46.9264 109.436 47.2174 109.222C47.5094 109.007 47.9924 108.736 48.2904 108.618C48.5884 108.501 48.8314 108.356 48.8314 108.296C48.8314 108.237 49.1134 108.04 49.4564 107.86C49.8004 107.679 50.1194 107.488 50.1654 107.434C50.2394 107.347 50.8824 106.994 51.7044 106.588C51.8634 106.51 52.0984 106.445 52.2254 106.445C52.3534 106.445 52.5574 106.325 52.6794 106.178C52.8014 106.031 53.0544 105.842 53.2414 105.759C53.4284 105.675 53.8064 105.46 54.0814 105.281C54.3564 105.102 54.8574 104.804 55.1954 104.619C55.5334 104.434 55.8524 104.213 55.9064 104.127C55.9594 104.04 56.2834 103.878 56.6254 103.767C56.9684 103.655 57.2854 103.512 57.3314 103.449C57.4284 103.317 59.4734 102.112 59.6014 102.112C59.6484 102.112 59.9334 101.925 60.2334 101.695C60.5344 101.466 60.8474 101.277 60.9304 101.274C61.0134 101.271 61.5304 100.971 62.0784 100.607C62.6264 100.243 63.1584 99.9454 63.2604 99.9454C63.3634 99.9454 63.5824 99.7954 63.7484 99.6124C63.9144 99.4294 64.1224 99.2794 64.2114 99.2794C64.3004 99.2794 64.8224 98.9794 65.3714 98.6124C65.9204 98.2454 66.4314 97.9454 66.5074 97.9454C66.6144 97.9454 67.6504 97.4034 67.9684 97.1814C67.9984 97.1604 67.9464 96.8684 67.8534 96.5324C67.6494 95.7924 67.7574 95.4454 68.1924 95.4454C68.4944 95.4454 68.4994 95.4715 68.2574 95.8165C67.6754 96.6485 68.0874 97.0674 68.8774 96.4454C69.1104 96.2624 69.4434 96.1124 69.6174 96.1124C69.9994 96.1124 71.8604 95.0174 72.0484 94.6834C72.1214 94.5524 72.3214 94.4454 72.4924 94.4454C72.6644 94.4454 72.8294 94.3894 72.8594 94.3204C72.9404 94.1394 73.9834 93.6124 74.2624 93.6124C74.3924 93.6124 74.4984 93.5495 74.4984 93.4725C74.4984 93.3945 74.7614 93.1904 75.0814 93.0174C75.4024 92.8444 75.6654 92.6454 75.6654 92.5744C75.6654 92.5034 75.8154 92.4454 75.9984 92.4454C76.1814 92.4454 76.3314 92.3704 76.3314 92.2794C76.3314 92.1874 76.4144 92.1124 76.5144 92.1124C76.6154 92.1124 77.3354 91.7374 78.1134 91.2794C78.8924 90.8204 79.5634 90.4454 79.6044 90.4454C79.6454 90.4454 79.7694 90.3695 79.8804 90.2765C80.3904 89.8485 81.3414 89.3015 81.8924 89.1195C82.6634 88.8655 82.6584 88.6585 81.8734 88.3475C79.9264 87.5765 79.1334 86.9685 79.4994 86.5285C79.7134 86.2705 79.7954 86.2204 81.4214 85.3624C83.2744 84.3844 83.1654 84.7075 83.1654 80.2035C83.1654 78.0455 83.1294 76.2794 83.0864 76.2794C83.0434 76.2794 82.7254 76.4395 82.3784 76.6355C82.0324 76.8305 81.4664 77.1385 81.1224 77.3185C80.7784 77.4995 80.4554 77.7144 80.4044 77.7964C80.3534 77.8784 80.1294 77.9454 79.9054 77.9454C79.6814 77.9454 79.4984 78.0204 79.4984 78.1124C79.4984 78.2044 79.4164 78.2794 79.3154 78.2794C79.2154 78.2794 78.9344 78.4184 78.6904 78.5884C78.4474 78.7594 77.7984 79.1464 77.2484 79.4484C76.2104 80.0194 76.1304 80.0605 75.1654 80.5105C74.8444 80.6595 74.3564 80.9184 74.0814 81.0844C73.8064 81.2504 72.7194 81.8415 71.6654 82.3985C70.6104 82.9565 69.3734 83.6204 68.9154 83.8764C68.0704 84.3464 67.2864 84.7655 64.5814 86.1935C63.7564 86.6285 62.7444 87.1754 62.3314 87.4084C61.9194 87.6414 60.8314 88.2224 59.9154 88.6984C58.9984 89.1754 57.4234 89.9994 56.4154 90.5304C50.5294 93.6284 50.1074 93.8204 49.8744 93.5014C49.6714 93.2244 50.0994 92.6314 50.5134 92.6164C50.5674 92.6144 51.4954 92.1254 52.5754 91.5294C53.6554 90.9334 54.5994 90.4454 54.6714 90.4454C54.7444 90.4454 54.8294 90.3804 54.8594 90.2994C54.8904 90.2194 55.3654 89.9205 55.9154 89.6345C56.4654 89.3475 57.4404 88.8144 58.0814 88.4474C58.7234 88.0814 59.6304 87.6004 60.0974 87.3784C60.5644 87.1554 61.4264 86.6834 62.0134 86.3274C62.6014 85.9714 63.4944 85.4714 63.9984 85.2164C64.5024 84.9624 65.2904 84.5385 65.7484 84.2755C66.2064 84.0125 67.0314 83.5615 67.5814 83.2725C68.1314 82.9845 68.9334 82.5485 69.3634 82.3055C69.7924 82.0615 70.6174 81.6105 71.1964 81.3025C71.7754 80.9935 72.3194 80.6755 72.4064 80.5935C72.4934 80.5125 72.6754 80.4454 72.8104 80.4454C72.9454 80.4454 73.1734 80.3425 73.3184 80.2175C73.4634 80.0915 74.4064 79.5594 75.4154 79.0354C76.4234 78.5104 77.3234 78.0224 77.4154 77.9514C77.5584 77.8394 80.6654 76.1845 82.0414 75.4865C82.6014 75.2025 82.5214 75.0324 81.7044 74.7714C81.3624 74.6614 81.0104 74.5065 80.9234 74.4255C80.8364 74.3455 80.5974 74.2794 80.3914 74.2794C80.1864 74.2794 79.9744 74.2095 79.9224 74.1235C79.5974 73.5975 78.0624 73.5675 77.0674 74.0665C75.0784 75.0645 72.4504 76.4444 72.2684 76.5854C72.0734 76.7364 70.6224 77.4945 69.3314 78.1195C68.9194 78.3185 68.0784 78.7554 67.4624 79.0884C66.8464 79.4224 65.6844 80.0325 64.8784 80.4445C64.0734 80.8565 63.3774 81.2415 63.3314 81.3005C63.2854 81.3585 62.8734 81.5884 62.4154 81.8104C61.9564 82.0324 60.7944 82.6334 59.8314 83.1454C58.8694 83.6574 57.5194 84.3715 56.8314 84.7335C56.1444 85.0955 55.1694 85.6205 54.6654 85.8995C54.1604 86.1795 53.0734 86.7634 52.2484 87.1974C51.4234 87.6304 50.5354 88.0975 50.2744 88.2355C49.1654 88.8215 49.2484 91.4985 49.2484 55.3435C49.2484 23.3165 49.2544 22.7484 49.5704 22.5164C49.8424 22.3184 49.9474 22.3164 50.2374 22.5054C50.4264 22.6284 51.1064 23.0154 51.7484 23.3654C52.3904 23.7144 53.7774 24.4904 54.8314 25.0884C55.8864 25.6864 57.0484 26.3384 57.4154 26.5384C57.7814 26.7374 58.4944 27.1354 58.9984 27.4224C60.1994 28.1054 64.4984 30.4944 66.2394 31.4454C66.9944 31.8584 67.8304 32.3415 68.0964 32.5195C68.3634 32.6975 69.0314 33.0774 69.5814 33.3644C70.4524 33.8184 71.8754 34.6214 72.6654 35.1054C72.8024 35.1894 73.3274 35.4624 73.8314 35.7124C74.3354 35.9624 75.1234 36.4005 75.5814 36.6865C76.0404 36.9715 76.9814 37.4894 77.6744 37.8374L78.9334 38.4694L80.8404 37.2664C81.8904 36.6044 82.7694 36.0475 82.7944 36.0285C82.9454 35.9135 82.5874 35.4864 82.2024 35.3224C81.9524 35.2164 81.4104 34.9324 80.9984 34.6904C80.5854 34.4494 79.7234 33.9454 79.0814 33.5714C78.4404 33.1964 77.8774 32.8425 77.8314 32.7835C77.7854 32.7245 77.0734 32.3164 76.2484 31.8754C75.4234 31.4354 74.6364 30.9774 74.4984 30.8574C74.3604 30.7374 73.7234 30.3584 73.0814 30.0154C72.4404 29.6724 71.5404 29.1544 71.0814 28.8664C70.6234 28.5774 69.8354 28.1224 69.3314 27.8544C68.8274 27.5864 67.9084 27.0474 67.2884 26.6564C66.6684 26.2654 66.1284 25.9454 66.0884 25.9454C66.0484 25.9454 64.9584 25.3084 63.6654 24.5294C62.3724 23.7494 61.2794 23.1124 61.2364 23.1124C61.1934 23.1124 60.8414 22.9124 60.4544 22.6674C59.7844 22.2454 57.7864 21.0714 56.1694 20.1514C55.7594 19.9174 54.7694 19.3294 53.9694 18.8444C51.5514 17.3784 51.6404 17.4094 50.9144 17.7794C49.6344 18.4324 49.6654 18.5814 49.6654 11.7834C49.6654 7.97345 49.6044 5.76145 49.4984 5.69545C49.4064 5.63945 49.3314 5.22245 49.3314 4.77045C49.3314 3.89145 48.8064 3.33845 47.1694 2.49445C46.8514 2.33045 46.5134 2.13845 46.4194 2.06845C45.9834 1.74345 44.9744 1.11245 44.8914 1.11245C44.8414 1.11245 44.5634 0.943448 44.2754 0.737448C43.0794 -0.116552 42.1994 -0.220551 41.2774 0.382449ZM211.915 24.6104C205.573 25.1784 202.85 27.9134 202.075 34.4904C201.785 36.9494 201.732 51.0254 202.003 53.5774C202.896 61.9744 205.728 64.1005 216.028 64.1095C226.343 64.1185 229.366 61.9165 230.163 53.8145C230.385 51.5505 230.38 37.2444 230.155 34.7874C229.59 28.6024 227.483 25.9734 222.215 24.8824C220.782 24.5854 214.147 24.4104 211.915 24.6104ZM100.373 25.0564C100.105 25.1644 100.063 63.3635 100.331 63.5285C100.54 63.6585 122.801 63.6514 123.01 63.5214C123.249 63.3744 123.207 58.7214 122.965 58.4794C122.814 58.3284 120.608 58.2794 114.058 58.2794C108.398 58.2794 105.315 58.2205 105.247 58.1115C105.19 58.0195 105.148 50.6644 105.154 41.7664C105.161 30.9284 105.107 25.4834 104.992 25.2674C104.824 24.9534 101.055 24.7814 100.373 25.0564ZM138.604 25.1964C138.466 25.3344 138.306 25.6164 138.248 25.8214C138.191 26.0274 138.082 26.3454 138.007 26.5294C137.931 26.7124 137.642 27.6124 137.364 28.5294C137.086 29.4454 136.445 31.5084 135.939 33.1124C135.432 34.7164 134.814 36.7044 134.564 37.5294C134.314 38.3544 134.047 39.1005 133.971 39.1875C133.894 39.2745 133.831 39.4784 133.831 39.6404C133.831 39.8024 133.725 40.1804 133.595 40.4814C133.465 40.7824 133.233 41.4794 133.08 42.0294C132.475 44.2004 132.125 45.3774 131.989 45.6954C131.822 46.0904 130.876 49.0324 129.577 53.1954C127.775 58.9744 127.325 60.3645 127.162 60.6515C127.072 60.8115 126.998 61.1144 126.998 61.3264C126.998 61.5384 126.924 61.7864 126.834 61.8764C126.743 61.9674 126.65 62.4014 126.625 62.8414L126.581 63.6424L128.901 63.6355C131.548 63.6265 131.467 63.6654 131.896 62.1954C132.056 61.6454 132.34 60.6704 132.526 60.0294C132.713 59.3874 132.926 58.7124 133.001 58.5294C133.076 58.3454 133.174 58.0454 133.22 57.8624C133.265 57.6794 133.395 57.2664 133.509 56.9454C133.622 56.6244 133.767 56.2124 133.832 56.0294C133.896 55.8454 134.054 55.3584 134.182 54.9454L134.415 54.1954L141.665 54.1495C149.701 54.0985 149.617 54.0924 149.76 54.7404C149.815 54.9904 149.997 55.6454 150.163 56.1954C150.329 56.7454 150.589 57.6084 150.741 58.1124C150.892 58.6164 151.193 59.5164 151.408 60.1124C151.623 60.7084 151.934 61.6685 152.099 62.2455C152.491 63.6155 152.389 63.5665 155.057 63.6475C157.846 63.7315 157.712 63.9254 156.835 61.0864C155.762 57.6094 155.159 55.7244 155.005 55.3624C154.927 55.1794 154.697 54.4664 154.495 53.7794C153.706 51.1024 152.784 48.1724 152.58 47.6954C152.462 47.4204 152.089 46.2584 151.752 45.1124C151.121 42.9714 150.899 42.2754 150.661 41.6954C150.586 41.5124 150.291 40.5744 150.005 39.6124C149.719 38.6504 149.182 36.9624 148.813 35.8624C148.443 34.7624 148.079 33.6374 148.003 33.3624C147.632 32.0214 146.774 29.2454 146.432 28.2794C146.22 27.6834 145.913 26.7834 145.748 26.2794C145.583 25.7754 145.376 25.2684 145.286 25.1544C145.027 24.8214 138.94 24.8604 138.604 25.1964ZM166.373 25.0474C166.098 25.1694 166.064 63.3634 166.339 63.5334C166.631 63.7144 183.313 63.6155 184.581 63.4265C190.044 62.6095 191.745 59.9984 191.732 52.4454C191.724 47.6064 191.261 45.8454 189.595 44.3094C188.768 43.5474 188.638 43.0684 189.169 42.7384C191.055 41.5664 191.709 32.1874 190.148 28.7014C189.474 27.1964 188.554 26.1904 187.581 25.8964C187.398 25.8414 186.723 25.6334 186.081 25.4344C184.943 25.0824 167.084 24.7314 166.373 25.0474ZM241.54 25.0534C241.269 25.1664 241.237 53.4214 241.506 55.1124C242.328 60.2904 244.151 62.5274 248.536 63.7394C250.263 64.2174 259.217 64.1645 261.169 63.6665C265.279 62.6165 267.139 60.3054 268.123 55.0294C268.441 53.3234 268.635 25.8464 268.333 25.2824C268.09 24.8274 264.038 24.7634 263.593 25.2074C263.359 25.4414 263.331 26.9665 263.331 39.4855C263.331 56.8385 263.362 56.5984 260.998 57.8794C260.145 58.3414 249.394 58.3664 248.556 57.9084C247.903 57.5504 246.831 56.3195 246.831 55.9255C246.831 55.7645 246.765 55.5905 246.683 55.5405C246.348 55.3335 246.293 53.5624 246.19 39.6124L246.081 25.0294L243.915 24.9984C242.723 24.9814 241.654 25.0064 241.54 25.0534ZM280.456 25.1194C280.14 25.3104 279.992 62.9154 280.305 63.4094C280.407 63.5694 281.016 63.6104 282.761 63.5754L285.081 63.5294L285.169 56.3624C285.217 52.4204 285.274 49.1704 285.294 49.1404C285.315 49.1094 288.088 49.1094 291.456 49.1414C300.663 49.2264 300.187 48.7594 300.293 57.8204L300.361 63.6124L300.721 63.6294C302.699 63.7234 305.391 63.6185 305.5 63.4425C305.57 63.3305 305.637 61.2034 305.65 58.7164C305.687 51.6974 305.246 49.1065 303.744 47.5135C303.083 46.8135 303.005 46.2435 303.519 45.8835C304.938 44.8895 305.658 41.7704 305.659 36.6124C305.661 29.0324 304.216 26.4254 299.415 25.3454C297.819 24.9864 281.009 24.7864 280.456 25.1194ZM68.1654 25.7784C68.1654 26.0144 68.7944 26.3074 68.9074 26.1244C69.0084 25.9614 68.9364 25.8974 68.4564 25.7264C68.2964 25.6694 68.1654 25.6924 68.1654 25.7784ZM82.9484 27.7154L82.8154 28.9024L82.0754 29.0044C81.6684 29.0594 81.1374 29.0304 80.8944 28.9384C80.6524 28.8464 80.3304 28.8104 80.1784 28.8584C80.0274 28.9064 79.4624 28.7904 78.9234 28.6014C78.3844 28.4114 77.2994 28.1824 76.5124 28.0914C75.7254 28.0004 74.8514 27.8554 74.5704 27.7684C73.8324 27.5434 73.3814 27.5754 73.2714 27.8624C73.1164 28.2654 72.5694 28.1534 71.5724 27.5164C71.0324 27.1704 70.5304 26.9614 70.3794 27.0194C70.1164 27.1204 71.3164 27.9664 74.4154 29.8664C75.1484 30.3154 75.8234 30.7444 75.9154 30.8184C76.0064 30.8934 76.7194 31.3354 77.4984 31.8014C78.2774 32.2664 78.9524 32.7034 78.9984 32.7724C79.0444 32.8404 79.3934 33.0764 79.7754 33.2964C80.1564 33.5154 80.9064 33.9485 81.4414 34.2565C81.9774 34.5655 82.5464 34.9335 82.7074 35.0755C83.1664 35.4785 83.1734 35.4084 83.1264 30.8454C83.0934 27.6204 83.0484 26.8294 82.9484 27.7154ZM220.781 30.0084C224.908 30.7954 225.454 32.7514 225.276 46.1124C225.138 56.5424 224.942 57.2075 221.665 58.4125C221.029 58.6465 220.177 58.6874 216.081 58.6814C206.952 58.6684 206.831 58.4805 206.831 44.2775C206.831 30.3595 207.162 29.8424 216.081 29.7974C218.425 29.7854 219.978 29.8554 220.781 30.0084ZM184.127 30.7524C185.623 31.2074 185.736 31.5094 185.803 35.2444C185.883 39.6604 185.624 40.3664 183.75 40.8554C182.463 41.1904 171.692 41.2404 171.365 40.9124C171.116 40.6634 171.076 30.7684 171.323 30.5204C171.627 30.2154 183.043 30.4224 184.127 30.7524ZM298.314 30.7904C300.222 31.4564 300.38 31.9915 300.295 37.4915C300.213 42.7585 300.139 42.9405 297.85 43.5275C296.728 43.8145 285.786 43.9764 285.357 43.7114C285.113 43.5614 285.08 30.7644 285.323 30.5204C285.65 30.1934 297.296 30.4354 298.314 30.7904ZM142.419 31.9054C142.574 32.3404 142.761 32.8454 142.835 33.0294C142.909 33.2124 143.006 33.5124 143.05 33.6954C143.176 34.2274 144.664 38.9954 144.818 39.3624C145.052 39.9214 145.795 42.2725 146.266 43.9435C146.511 44.8135 146.774 45.6385 146.851 45.7775C147.099 46.2235 147.665 48.1555 147.665 48.5535C147.665 49.1135 147.499 49.1274 141.665 49.0754L136.415 49.0294L136.361 48.5604C136.331 48.3024 136.435 47.6644 136.592 47.1434C136.749 46.6224 136.984 45.8204 137.115 45.3624C137.245 44.9044 137.491 44.1544 137.661 43.6954C137.953 42.9094 138.282 41.8644 139.16 38.9454C139.366 38.2584 139.628 37.4704 139.741 37.1954C139.854 36.9204 140.079 36.2454 140.242 35.6954C140.404 35.1454 140.6 34.5084 140.676 34.2794C140.752 34.0504 140.976 33.3004 141.173 32.6124C141.725 30.6944 141.944 30.5694 142.419 31.9054ZM9.33138 36.7514C9.33138 36.9684 9.13338 37.1125 8.97238 37.0135C8.80038 36.9065 8.94838 36.6124 9.17538 36.6124C9.26138 36.6124 9.33138 36.6754 9.33138 36.7514ZM180.752 46.4314C185.941 46.6234 186.369 46.9094 186.666 50.3794C187.015 54.4534 186.444 57.1734 185.082 57.9214C184.404 58.2924 171.537 58.4415 171.308 58.0795C171.076 57.7145 171.13 46.7134 171.365 46.4794C171.601 46.2424 175.167 46.2244 180.752 46.4314ZM107.184 75.3005C103.003 75.9945 100.912 78.0804 100.475 81.9924C100.176 84.6724 100.366 94.3104 100.744 95.6404C101.915 99.7544 104.455 100.841 112.915 100.85C123.182 100.861 125.254 99.6504 125.591 93.4454C125.716 91.1514 125.78 91.2194 123.471 91.1714C121.253 91.1254 121.337 91.0565 121.334 92.9145C121.326 97.0515 119.805 97.7724 111.581 97.5354C104.723 97.3374 104.748 97.3735 104.748 87.9454V81.1954L105.226 80.4384C106.338 78.6774 107.235 78.4454 112.952 78.4454C120.216 78.4454 120.945 78.8024 121.303 82.5294L121.415 83.6954L123.452 83.7424L125.489 83.7895L125.599 83.3534C125.745 82.7694 125.544 80.6604 125.246 79.6574C124.554 77.3284 122.55 75.9114 119.071 75.2924C117.862 75.0774 108.49 75.0835 107.184 75.3005ZM136.748 75.3565C133.149 75.9815 131.228 77.3244 130.424 79.7794C130.259 80.2834 130.058 80.8265 129.978 80.9855C129.635 81.6625 129.805 94.1064 130.176 95.4494C131.346 99.6864 134.392 100.95 143.414 100.942C152.13 100.935 155.198 99.7645 156.442 95.9705L156.915 94.5294V88.0294C156.915 82.9324 156.864 81.3494 156.679 80.6954C155.753 77.4214 154.006 76.0244 149.998 75.3544C148.181 75.0514 138.5 75.0525 136.748 75.3565ZM262.831 75.3074C258.765 76.1474 257.103 77.6215 256.402 81.0125C256.012 82.8995 256.14 94.3934 256.567 95.8504C257.757 99.9064 260.935 101.097 269.998 100.882C273.905 100.79 274.95 100.686 277.075 100.178C278.224 99.9035 279.779 98.6525 280.375 97.5235C281.389 95.6055 281.785 91.7004 281.009 91.2854C280.656 91.0964 278.348 91.0504 277.519 91.2164L276.998 91.3204V92.9454C276.998 97.0805 276.173 97.5334 268.665 97.5164C262.776 97.5034 261.867 97.2495 260.915 95.3565L260.415 94.3624V87.9454C260.415 78.4485 260.316 78.5674 268.248 78.4754C275.858 78.3874 276.818 78.8114 276.969 82.3254L277.032 83.7885L279.14 83.7424L281.248 83.6954L281.247 82.0294C281.246 80.3774 281.167 80.0195 280.465 78.4945C279.75 76.9435 277.898 75.8825 274.865 75.2865C273.777 75.0725 263.885 75.0894 262.831 75.3074ZM163.017 75.5054C162.88 75.6704 162.841 79.1104 162.872 88.1304L162.915 100.529H164.915H166.915L166.958 90.3985C167.006 78.9145 166.938 79.4144 168.253 80.8814C168.655 81.3294 168.986 81.7834 168.991 81.8904C168.995 81.9974 169.054 82.1094 169.123 82.1404C169.259 82.2004 169.406 82.3864 171.998 85.7844C172.961 87.0464 174.61 89.1884 175.665 90.5444C176.719 91.9004 178.444 94.1425 179.498 95.5265C180.552 96.9115 181.89 98.6235 182.47 99.3325L183.526 100.62L186.387 100.574L189.248 100.529L189.291 88.0074L189.333 75.4855L188.957 75.3845C188.393 75.2335 185.614 75.2634 185.361 75.4234C185.182 75.5374 185.144 77.3984 185.158 85.3124C185.17 92.1114 185.12 95.2084 184.99 95.5454L184.805 96.0294L184.11 95.2104C183.727 94.7604 183.002 93.8535 182.498 93.1945C181.994 92.5355 180.719 90.8814 179.665 89.5184C177.621 86.8754 177.608 86.8575 176.089 84.8445C175.543 84.1215 175.018 83.4434 174.922 83.3394C174.826 83.2354 174.448 82.7575 174.081 82.2775C173.715 81.7975 172.965 80.8254 172.415 80.1184C171.865 79.4114 170.965 78.2474 170.415 77.5324C169.865 76.8164 169.239 76.0174 169.025 75.7554L168.635 75.2794H165.92C163.834 75.2794 163.162 75.3314 163.017 75.5054ZM196.438 75.4764C196.188 75.6154 196.165 76.7074 196.165 88.0344V100.439L196.54 100.533C196.746 100.584 197.665 100.604 198.581 100.577L200.248 100.529L200.335 90.2794C200.382 84.6414 200.438 80.0104 200.46 79.9874C200.657 79.7734 201.115 80.2824 203.415 83.2794C203.781 83.7574 204.592 84.7964 205.216 85.5884C206.748 87.5344 206.876 87.7005 207.165 88.1195C207.302 88.3185 207.982 89.2054 208.675 90.0884C210.192 92.0234 211.475 93.6854 213.005 95.6954C214.538 97.7104 216.28 99.9624 216.582 100.32C216.89 100.686 222.276 100.767 222.631 100.412C222.975 100.069 222.914 75.8865 222.569 75.5415C222.299 75.2705 219.708 75.1605 218.873 75.3845L218.498 75.4845V85.6225C218.498 91.4145 218.434 95.7994 218.349 95.8514C218.109 95.9994 217.602 95.4764 216.179 93.6124C213.978 90.7294 212.642 88.9934 211.498 87.5334C210.902 86.7724 210.287 85.9724 210.13 85.7564C209.75 85.2304 209.609 85.0464 207.625 82.5054C206.684 81.3004 205.502 79.7764 204.998 79.1184C203.177 76.7414 202.154 75.5295 201.87 75.4125C201.451 75.2405 196.761 75.2954 196.438 75.4764ZM229.705 75.4165C229.54 75.5225 229.505 78.1585 229.539 88.0395L229.581 100.529H240.831H252.081V98.9454V97.3624L243.09 97.3354C234.681 97.3104 234.084 97.2895 233.881 97.0115C233.584 96.6045 233.569 89.7754 233.865 89.4794C234.015 89.3284 236.244 89.2794 242.871 89.2794H251.677L251.629 87.6544L251.581 86.0294L242.785 85.9865L233.989 85.9425L233.827 85.5164C233.506 84.6734 233.623 79.2025 233.968 78.8895C234.24 78.6435 235.181 78.6114 243.176 78.5724L252.081 78.5294V76.9454V75.3624L240.998 75.3224C234.902 75.3004 229.82 75.3435 229.705 75.4165ZM282.623 75.3944C282.238 75.4944 282.137 75.9604 282.198 77.3654L282.248 78.5294L287.032 78.6124C290.017 78.6644 291.88 78.7615 291.989 78.8695C292.104 78.9855 292.176 82.6215 292.205 89.7865L292.248 100.529L294.27 100.575L296.293 100.622L296.401 100.19C296.461 99.9535 296.501 95.0665 296.492 89.3315C296.482 83.5955 296.538 78.8385 296.617 78.7605C296.695 78.6815 298.932 78.5974 301.587 78.5734L306.415 78.5294L306.355 77.0294C306.32 76.1514 306.216 75.4784 306.105 75.4064C305.903 75.2764 283.119 75.2644 282.623 75.3944ZM149.191 78.6864C152.454 79.3784 152.581 79.7304 152.581 88.0294V94.5294L152.186 95.3315C151.264 97.2045 150.052 97.5014 143.331 97.5034C133.985 97.5044 133.882 97.3884 134.045 87.0434C134.157 80.0084 134.384 79.4494 137.436 78.7104C138.831 78.3724 147.626 78.3554 149.191 78.6864ZM80.3134 88.5444C80.7204 88.7474 80.8034 88.8615 80.6664 89.0265C80.3534 89.4045 79.8314 89.4535 79.8314 89.1065C79.8314 88.9375 79.7564 88.7524 79.6654 88.6954C79.0594 88.3214 79.6094 88.1934 80.3134 88.5444ZM77.3924 90.1954C77.3394 90.3334 77.2164 90.4454 77.1184 90.4454C77.0214 90.4454 76.8234 90.5515 76.6784 90.6805C76.3574 90.9665 75.4644 91.0924 75.3904 90.8624C75.3024 90.5894 76.3734 89.9675 76.9514 89.9565C77.3624 89.9485 77.4654 90.0044 77.3924 90.1954ZM73.2804 92.3755C73.3134 92.4745 73.1474 92.6425 72.9114 92.7505C72.3464 93.0085 72.1654 92.9965 72.1654 92.7045C72.1654 92.2305 73.1374 91.9445 73.2804 92.3755ZM71.5524 93.3465C71.6824 93.6855 71.5214 93.7794 70.8044 93.7794C70.0994 93.7794 70.0184 93.6775 70.4564 93.3445C70.8414 93.0525 71.4404 93.0535 71.5524 93.3465ZM71.7484 94.2794C71.8074 94.3754 71.6534 94.4445 71.3834 94.4435C71.0194 94.4415 70.9714 94.4044 71.1654 94.2794C71.4854 94.0724 71.6204 94.0724 71.7484 94.2794ZM82.9564 97.0014C82.8884 97.1694 82.8314 97.8624 82.8314 98.5424C82.8314 99.8554 82.5334 100.445 81.8704 100.445C81.7084 100.445 81.2994 100.633 80.9624 100.862C80.6254 101.091 80.2794 101.279 80.1944 101.279C80.1094 101.279 79.9534 101.382 79.8494 101.508C79.7444 101.634 79.3654 101.784 79.0074 101.841C78.6484 101.899 78.2304 102.07 78.0784 102.222C77.8084 102.492 77.5094 102.327 77.5014 101.904C77.4964 101.66 76.4884 101.777 76.3904 102.033C76.3224 102.211 76.2324 102.237 76.0904 102.119C75.9474 102 75.7474 102.09 75.4014 102.428C75.0634 102.758 74.6074 102.968 73.9144 103.11C73.3644 103.223 72.8124 103.398 72.6874 103.5C72.3744 103.754 71.4684 104.082 70.0814 104.442C69.4404 104.609 68.6524 104.839 68.3314 104.954C68.0114 105.068 67.5334 105.239 67.2704 105.332C67.0074 105.426 66.6514 105.733 66.4794 106.015C66.3074 106.298 66.1664 106.479 66.1654 106.419C66.1644 106.276 64.9864 106.618 62.9414 107.354C62.0384 107.679 61.0494 107.945 60.7424 107.945C60.4354 107.945 60.1434 108.013 60.0924 108.095C60.0414 108.178 59.6054 108.339 59.1244 108.454C58.6424 108.569 57.9184 108.914 57.5164 109.221C57.1134 109.528 56.7004 109.781 56.5994 109.784C56.4984 109.787 55.9674 110.012 55.4194 110.284C54.8714 110.556 54.2904 110.779 54.1274 110.779C53.9644 110.779 53.8314 110.856 53.8314 110.949C53.8314 111.232 53.1034 111.421 51.6854 111.506C50.9464 111.55 50.2644 111.634 50.1704 111.692C49.9144 111.85 49.9624 112.112 50.2484 112.112C50.3854 112.112 50.4984 112.216 50.4984 112.342C50.4984 112.6 49.3314 112.945 48.4634 112.945C48.1594 112.945 47.6344 113.093 47.2974 113.274C46.9594 113.455 46.4064 113.592 46.0674 113.579C45.5354 113.559 45.3484 113.663 44.7154 114.334C43.9924 115.099 43.6184 115.275 43.4154 114.945C42.9034 114.118 42.6344 116.379 42.6954 120.989L42.7484 124.949L44.4984 123.926C45.4604 123.364 46.4734 122.782 46.7484 122.633C47.0234 122.484 47.2854 122.318 47.3314 122.264C47.3774 122.21 47.7904 121.954 48.2484 121.694C48.7064 121.435 49.1944 121.129 49.3314 121.015C49.4694 120.902 50.0314 120.566 50.5814 120.27C51.1314 119.973 51.6834 119.651 51.8074 119.553C51.9324 119.455 52.1764 119.297 52.3494 119.202C52.5234 119.107 53.8314 118.316 55.2554 117.445C59.4114 114.906 60.2044 114.427 60.9984 113.98C61.4104 113.747 62.3484 113.168 63.0814 112.692C63.8154 112.216 64.9494 111.525 65.6014 111.157C66.2544 110.788 67.0784 110.29 67.4324 110.049C67.7864 109.809 68.1704 109.612 68.2874 109.612C68.4034 109.612 68.4984 109.55 68.4984 109.473C68.4984 109.397 68.7044 109.23 68.9564 109.103C69.2084 108.975 70.1124 108.437 70.9654 107.908C71.8184 107.378 72.5794 106.945 72.6574 106.945C72.7344 106.945 73.1974 106.645 73.6854 106.279C74.1734 105.912 74.6434 105.612 74.7304 105.612C74.8174 105.612 75.0074 105.51 75.1524 105.385C75.2964 105.261 75.8384 104.93 76.3564 104.65C77.3814 104.097 78.2004 103.594 78.3314 103.437C78.3774 103.382 78.5274 103.287 78.6654 103.226C78.8024 103.164 79.5524 102.706 80.3314 102.207C81.1104 101.709 82.0284 101.145 82.3704 100.954C82.7134 100.764 83.0354 100.44 83.0864 100.235C83.2254 99.6785 83.1034 96.6414 82.9564 97.0014ZM79.8314 100.362C79.7174 100.5 79.5214 100.612 79.3944 100.612C79.2684 100.612 79.1654 100.762 79.1654 100.945C79.1654 101.371 79.5274 101.373 79.9114 100.95C80.0754 100.769 80.3504 100.576 80.5224 100.521C80.6954 100.466 80.7934 100.352 80.7414 100.267C80.5934 100.028 80.0624 100.084 79.8314 100.362ZM54.1974 103.231C53.9864 103.271 53.7444 103.486 53.6604 103.708C53.4924 104.149 52.9984 104.264 52.9984 103.862C52.9984 103.724 53.0734 103.612 53.1654 103.612C53.2564 103.612 53.3314 103.5 53.3314 103.362C53.3314 103.18 53.5024 103.118 53.9564 103.135C54.3614 103.149 54.4464 103.183 54.1974 103.231ZM50.9314 105.545C50.8514 105.756 50.7704 105.784 50.6374 105.651C50.5364 105.55 50.5044 105.338 50.5654 105.179C50.6454 104.968 50.7264 104.94 50.8594 105.073C50.9604 105.174 50.9924 105.386 50.9314 105.545Z" fill="white"/>
</svg>
